<?xml version="1.0" encoding="UTF-8"?>
<svg id="Layer_2" data-name="Layer 2" xmlns="http://www.w3.org/2000/svg" viewBox="0 0 793.74 779.17">
  <defs>
    <style>
      .cls-1 {
        fill: #efb706;
      }

      .cls-1, .cls-2, .cls-3 {
        stroke-width: 0px;
      }

      .cls-2 {
        fill: #fcfcfc;
      }

      .cls-3 {
        fill: #030303;
      }
    </style>
  </defs>
  <g id="Layer_1-2" data-name="Layer 1">
    <g>
      <path class="cls-3" d="m230.25,273.63c-12.38-12.16-25.03-23.45-36.91-35.58-22.79-23.27-42.59-48.59-54-79.52-10.35-28.06-12.94-56.53-1.37-84.82,9.15-22.37,24.91-38.09,49.44-42.94,17.95-3.55,34.67,1.19,50.63,9.22,25.3,12.73,43.8,32.81,59.51,55.73,17.82,25.99,32.3,53.89,46.22,82.09.49.99.96,1.98,1.89,3.93.75-12.4,1.09-23.76,2.2-35.05,2.73-27.71,6.48-55.29,17.76-81.08C384.54,22.39,429.07-3.89,475.91.47c25.33,2.36,42.55,16.73,53.82,38.71,12.56,24.5,15.36,50.73,12.52,77.76-3.76,35.72-18.68,67.33-36.26,98.05,2.66,1.07,3.75-1.36,5.19-2.64,26.56-23.61,54.12-45.87,85.09-63.53,19.06-10.87,39.1-19.31,61.11-21.98,25.26-3.06,48.79,1.85,69.7,16.72,28.91,20.55,38.43,55.48,25.05,90.34-9.54,24.87-27.3,42.59-49.22,56.67-24.1,15.48-50.74,25.53-77.36,35.54-12.68,4.77-25.53,9.09-39.5,14.04,9.96,0,18.67-.03,27.38,0,35.51.13,70.98.89,105.93,8.06,17.26,3.54,33.65,9.44,47.59,20.71,25.46,20.6,34.08,57.82,20.11,89.95-14.51,33.37-41.44,51.63-76.04,59.25-31.41,6.91-62.25,2.42-92.67-6.47-10.06-2.94-19.97-6.34-29.76-10.1-1.09-.42-2.55-1.89-3.53-.38-.93,1.42.85,2.32,1.66,3.23,13.22,14.78,26.04,29.89,37.53,46.06,15.58,21.92,28.16,45.32,31.92,72.35,4.73,34.02-2.84,64.39-29.53,87.8-17.34,15.21-38.35,19.15-60.74,16.97-31.16-3.03-55.14-19.16-75.33-41.91-18.19-20.49-31.35-44.14-42.85-68.81-.38-.83-.8-1.64-1.21-2.45-.5.05-1,.1-1.5.16,0,8.71.32,17.44-.06,26.13-1.21,28.18-5.96,55.59-19.18,80.91-12.21,23.4-30.03,41-54.68,51.03-37.48,15.24-75.72,3.2-97.93-30.66-15.88-24.21-19.79-51.2-17.83-79.39,2.42-34.65,12.19-67.68,22.76-100.5.44-1.36.9-2.72,1.5-4.55-3.07,0-4.13,2.13-5.56,3.43-29.97,27.15-62.05,51.4-97.78,70.52-19.58,10.48-40.24,17.61-62.83,17.42-35.41-.3-63.41-20.07-72.23-51.32-6.15-21.77-3.42-42.9,6.14-63.2,10.68-22.68,28.23-39.32,48.22-53.64,22.66-16.23,47.12-29.38,72.18-41.47.99-.48,2-.93,2.9-2.16-1.52,0-3.03-.05-4.55,0-34.29,1.27-68.27-.34-101.27-10.89-15.36-4.91-29.69-11.86-41.56-23.04C.38,381.65-6.46,346.53,6.5,314.57c13.92-34.34,40.66-53.92,75.58-63.04,31.8-8.31,63.41-5.09,94.74,3.34,16.41,4.41,32.29,10.34,48.03,16.69,1.79.72,3.61,1.38,5.41,2.07Zm262.21,109.28c-1.07-27.25-12.61-51.67-37-69.31-18.08-13.08-38.76-18.81-60.74-20.28-23.77-1.59-45.38,6.37-65.99,16.69-23.3,11.67-36.9,31.39-40.51,57.09-2.54,18.06-1.1,36.25,3.5,54.01,10,38.63,46.22,64.67,85.88,60.04,31.75-3.7,60.95-15.46,86.32-35.19,19.5-15.17,28.47-35.93,28.56-63.05Zm140.39,256.26c-.18-23.53-8.44-44.28-21.19-63.17-31.84-47.2-71.98-86.76-115.16-123.44-1.94-1.65-2.8-1.18-4.3.52-12.92,14.61-29.08,24.7-46.49,33-3.15,1.5-7.51,2.07-9.23,4.52-1.98,2.83.95,6.85,1.51,10.39,3.48,21.86,7.27,43.67,14.82,64.58,13,36.02,29.41,70.28,53.6,100.26,12.97,16.07,28.65,28.77,48.97,34.65,26.63,7.71,51.89.09,65.57-19.94,8.55-12.51,11.72-26.65,11.91-41.38Zm-212.31-14.44c-.79-47.55-5.08-83.86-12.5-119.83-.85-4.1-2.29-4.04-5.62-3.18-23.21,5.95-46.36,6.91-69.21-1.76-1.91-.72-2.77-.78-3.78,1.31-3.04,6.27-6.75,12.24-9.58,18.6-20.05,44.94-33.5,91.84-39.57,140.65-2.61,21.03-.66,41.94,9.55,61.25,14.38,27.2,39.46,38.36,67.18,29.26,27.58-9.06,44.22-29.14,53.7-55.75,9.39-26.36,9.97-53.82,9.83-70.54Zm41.42-336.85c1.03.8,1.89,1.56,2.84,2.18,17.13,11.08,30.76,25.39,39.81,43.77,1.51,3.06,3.23,2.43,5.6,1.84,44.12-10.9,87.34-24.59,129.53-41.49,21.18-8.49,42.12-17.46,60.26-31.71,15.03-11.81,26.44-26.18,31.34-45.05,6.09-23.48-2.85-44.89-23.83-57.13-14.78-8.63-30.79-11.3-47.62-9.54-21.5,2.24-40.77,10.75-58.81,22.06-51.36,32.19-96.63,71.79-139.12,115.08Zm-318.71,125.05c43.01-.34,79.84-6.15,116.66-12.02,3.12-.5,3.84-1.62,3.49-4.85-2.66-24.78.04-48.54,14.56-69.73,2.04-2.97-.17-3.27-1.82-4.13-28.78-14.98-58.11-28.7-89.12-38.5-28.61-9.04-57.58-15.37-87.85-10.42-20.69,3.38-39.67,10.83-54.18,26.41-18.32,19.68-25.68,42.61-16.02,68.86,6.25,16.99,20.31,25.77,36.45,31.64,26.94,9.81,54.98,12.69,77.83,12.74Zm227.49-229.75c.17,30.02,2.55,56.68,6.91,83.18.52,3.19,1.69,4.06,4.86,3.7,17.64-2.02,34.89.04,51.7,5.6,2.32.77,3.45.53,4.81-1.6,17.48-27.31,35.7-54.16,51.55-82.47,14.76-26.36,25.63-54.08,27.69-84.6,1.47-21.73-1.89-42.48-13.47-61.35-7.56-12.31-18.63-19.13-33.03-20.52-13.75-1.33-26.81,1.31-39.38,6.8-27.49,12-42.56,34.2-50.46,62.03-8.57,30.19-10.82,61.2-11.19,89.24Zm223.5,181.73c-25.12,1.07-50.23,2.19-75.35,3.16-2.86.11-3.16,1.16-2.84,3.64,2.42,18.87.14,37.17-7.25,54.73-1.05,2.5-.83,3.64,1.61,4.99,5.97,3.28,12.02,6.53,17.55,10.47,31.94,22.76,66.92,38.73,104.99,48.12,25.16,6.2,50.44,9.48,76.01,3.14,23.11-5.72,41.94-17.59,52.91-39.61,15.66-31.43,4.24-61.99-28.17-75.31-14.6-6-30.06-8.45-45.65-10.03-31.19-3.16-62.49-3.48-93.81-3.31ZM62.86,571.37c-.08,26.15,11.2,42.72,31.33,49.4,6.2,2.06,12.6,3.1,19.12,3.24,18.56.4,35.3-5.86,51.23-14.54,55.39-30.19,102.2-70.62,142.16-119.25,2.27-2.76,1.41-3.82-1-5.64-17.67-13.3-30.07-30.42-36.46-51.67-.95-3.18-1.71-4.1-5.34-3.08-43.26,12.19-84.39,29.4-123.31,51.85-19.34,11.16-38.32,22.88-53.81,39.3-14.26,15.12-23.45,32.57-23.92,50.39ZM155.56,116.65c-.09,4.1.96,12,2.84,19.8,6.24,25.91,20.11,47.66,37.4,67.36,31.5,35.89,69.26,64.68,107.06,93.38,2.05,1.56,3.2.65,4.73-.44,12.53-8.96,26.15-15.89,40.73-20.75,3.98-1.33,3.99-3.1,3.15-6.42-9.22-36.48-23.92-70.77-41.55-103.86-13.13-24.65-26.24-49.36-44.21-71-14.02-16.89-30.28-30.94-51.61-37.83-19.14-6.18-35.74-.73-47.13,15.21-8.67,12.13-11.39,26.01-11.41,44.55Zm427.52,384.32c.47.2.91.4,1.36.59l.34-.81c-.42-.17-.83-.38-1.26-.47-.09-.02-.28.42-.44.69Zm-303.41,55.85c-.12-.21-.24-.43-.36-.64-.11.11-.33.25-.31.33.05.24.2.45.31.67.11-.11.22-.22.36-.36Z"/>
      <path class="cls-1" d="m492.46,382.91c-.09,27.12-9.06,47.88-28.56,63.05-25.37,19.73-54.57,31.49-86.32,35.19-39.66,4.63-75.87-21.41-85.88-60.04-4.6-17.76-6.04-35.94-3.5-54.01,3.62-25.69,17.21-45.42,40.51-57.09,20.62-10.33,42.22-18.29,65.99-16.69,21.99,1.47,42.67,7.21,60.74,20.28,24.39,17.64,35.93,42.06,37,69.31Z"/>
      <path class="cls-2" d="m632.85,639.17c-.19,14.72-3.36,28.86-11.91,41.38-13.68,20.03-38.94,27.64-65.57,19.94-20.32-5.88-36-18.57-48.97-34.65-24.19-29.98-40.6-64.25-53.6-100.26-7.55-20.92-11.34-42.73-14.82-64.58-.56-3.54-3.49-7.56-1.51-10.39,1.71-2.46,6.08-3.02,9.23-4.52,17.41-8.3,33.57-18.39,46.49-33,1.5-1.7,2.36-2.17,4.3-.52,43.18,36.69,83.32,76.25,115.16,123.44,12.74,18.89,21,39.64,21.19,63.17Z"/>
      <path class="cls-2" d="m420.55,624.73c.13,16.72-.44,44.19-9.83,70.54-9.48,26.62-26.12,46.69-53.7,55.75-27.72,9.1-52.8-2.06-67.18-29.26-10.21-19.31-12.16-40.23-9.55-61.25,6.06-48.81,19.51-95.71,39.57-140.65,2.84-6.36,6.54-12.33,9.58-18.6,1.01-2.09,1.88-2.03,3.78-1.31,22.85,8.67,46,7.72,69.21,1.76,3.33-.85,4.77-.92,5.62,3.18,7.42,35.97,11.71,72.28,12.5,119.83Z"/>
      <path class="cls-2" d="m461.96,287.88c42.49-43.29,87.76-82.89,139.12-115.08,18.04-11.31,37.31-19.81,58.81-22.06,16.83-1.76,32.83.92,47.62,9.54,20.98,12.24,29.92,33.65,23.83,57.13-4.9,18.87-16.3,33.24-31.34,45.05-18.14,14.25-39.09,23.22-60.26,31.71-42.19,16.91-85.41,30.6-129.53,41.49-2.37.59-4.09,1.22-5.6-1.84-9.04-18.39-22.67-32.69-39.81-43.77-.95-.62-1.81-1.38-2.84-2.18Z"/>
      <path class="cls-2" d="m143.25,412.93c-22.85-.05-50.89-2.93-77.83-12.74-16.14-5.88-30.21-14.66-36.45-31.64-9.66-26.25-2.3-49.19,16.02-68.86,14.5-15.58,33.49-23.02,54.18-26.41,30.27-4.95,59.24,1.37,87.85,10.42,31.01,9.8,60.34,23.53,89.12,38.5,1.65.86,3.86,1.15,1.82,4.13-14.52,21.19-17.22,44.95-14.56,69.73.35,3.23-.37,4.36-3.49,4.85-36.82,5.87-73.64,11.68-116.66,12.02Z"/>
      <path class="cls-2" d="m370.74,183.17c.38-28.05,2.62-59.06,11.19-89.24,7.9-27.82,22.97-50.03,50.46-62.03,12.57-5.49,25.63-8.13,39.38-6.8,14.4,1.4,25.47,8.21,33.03,20.52,11.58,18.87,14.94,39.62,13.47,61.35-2.07,30.53-12.94,58.24-27.69,84.6-15.85,28.31-34.07,55.16-51.55,82.47-1.36,2.12-2.49,2.36-4.81,1.6-16.82-5.55-34.07-7.61-51.7-5.6-3.17.36-4.34-.51-4.86-3.7-4.36-26.5-6.74-53.16-6.91-83.18Z"/>
      <path class="cls-2" d="m594.24,364.9c31.33-.18,62.62.15,93.81,3.31,15.58,1.58,31.05,4.03,45.65,10.03,32.4,13.32,43.83,43.88,28.17,75.31-10.97,22.02-29.8,33.89-52.91,39.61-25.58,6.33-50.85,3.06-76.01-3.14-38.07-9.38-73.05-25.36-104.99-48.12-5.53-3.94-11.59-7.18-17.55-10.47-2.44-1.35-2.66-2.49-1.61-4.99,7.4-17.56,9.67-35.86,7.25-54.73-.32-2.47-.02-3.52,2.84-3.64,25.12-.97,50.23-2.09,75.35-3.16Z"/>
      <path class="cls-2" d="m62.86,571.37c.48-17.82,9.66-35.27,23.92-50.39,15.49-16.42,34.47-28.14,53.81-39.3,38.92-22.45,80.05-39.66,123.31-51.85,3.63-1.02,4.39-.1,5.34,3.08,6.39,21.25,18.79,38.37,36.46,51.67,2.41,1.82,3.27,2.88,1,5.64-39.96,48.62-86.78,89.06-142.16,119.25-15.93,8.68-32.67,14.95-51.23,14.54-6.52-.14-12.93-1.18-19.12-3.24-20.13-6.68-31.41-23.25-31.33-49.4Z"/>
      <path class="cls-2" d="m155.56,116.65c.02-18.54,2.74-32.42,11.41-44.55,11.39-15.94,27.99-21.38,47.13-15.21,21.33,6.89,37.59,20.94,51.61,37.83,17.96,21.64,31.07,46.35,44.21,71,17.63,33.09,32.33,67.38,41.55,103.86.84,3.33.83,5.1-3.15,6.42-14.58,4.85-28.2,11.79-40.73,20.75-1.53,1.09-2.68,2-4.73.44-37.81-28.71-75.56-57.49-107.06-93.38-17.29-19.7-31.16-41.45-37.4-67.36-1.88-7.8-2.93-15.7-2.84-19.8Z"/>
      <path class="cls-2" d="m583.08,500.97c.17-.27.35-.71.44-.69.43.09.84.3,1.26.47-.11.27-.23.54-.34.81-.45-.19-.89-.39-1.36-.59Z"/>
      <path class="cls-2" d="m279.67,556.83c-.13.13-.24.24-.36.36-.11-.22-.26-.44-.31-.67-.02-.08.2-.22.31-.33.12.22.24.43.36.64Z"/>
    </g>
  </g>
</svg>